# xmcd
#
# Track frame offsets:
#	150
#	13732
#	32022
#	40245
#	53845
#	66497
#	116235
#	133637
#	139517
#	159372
#	185692
#	195832
#	213047
#	219017
#	237965
#
# Disc length: 3490 seconds
#
# Revision: 1
# Processed by: cddbd v1.5.1PL0 Copyright (c) Steve Scherf et al.
# Submitted via: CDex 1.50Beta5
#
DISCID=cd0da00f
DTITLE=チューリップ - チューリップ アンソロジー1〜レアトラック集
DYEAR=2000
DGENRE=
TTITLE0=夢中さ君に(オリジナル バージョン re-mix)
TTITLE1=心の旅(2001年心の旅 mix)
TTITLE2=サンサット通り(2000年 re-mix)
TTITLE3=ぼくがつくった愛のうた〜いとしのEmily〜(財津 仮唄バージョン)
TTITLE4=旅立
TTITLE5=たえちゃん(無修正 バージョン)
TTITLE6=悲しきレイン・トレイン(2000年 re-mix いいと思います!)
TTITLE7=シタールのしらべ TAKE1〜TAKE3
TTITLE8=涙はいらない
TTITLE9=青春のエピローグ
TTITLE10=未完ナンバー
TTITLE11=虹とスニーカーの頃
TTITLE12=与作
TTITLE13=Shooting Star(Shooting Stars バージョン)
TTITLE14=さよなら道化者(エンドロール バージョン)
EXTD=
EXTT0=
EXTT1=
EXTT2=
EXTT3=
EXTT4=
EXTT5=
EXTT6=
EXTT7=
EXTT8=
EXTT9=
EXTT10=
EXTT11=
EXTT12=
EXTT13=
EXTT14=
PLAYORDER=
